<?xml version="1.0" encoding="UTF-8"?>
<!-- Created with Inkscape (http://www.inkscape.org/) -->
<svg width="800" height="800" version="1.1" viewBox="0 0 211.67 211.67" xmlns="http://www.w3.org/2000/svg">
 <g>
  <path d="m42.333 21.167c-10.6 0-16.905 10.471-19.556 19.6-1.1313 3.8955-1.5903 13.233-1.5903 13.233l-0.0207 30.668 148.17 3e-6v-63.5z" fill="#3dcc77" style="paint-order:markers fill stroke"/>
  <path d="m42.333 21.167c12.348 0 21.167 12.7 21.167 29.633l1.9e-5 139.7c5.0347-0.9186 5.1534-18.377 10.274-9.7544 0.72518 4.541 5.9512 14.819 8.9728 5.7361 0.88331-3.9015 5.0057-13.511 7.3375-4.6633 0.38106 5.9322 7.0894 12.923 9.0032 3.5161 0.6245-4.1079 5.0076-11.682 6.8718-3.5161 0.38106 5.9322 7.0894 12.923 9.0032 3.5161 0.62451-4.1079 5.0076-11.682 6.8718-3.5161 0.38106 5.9322 7.0894 12.923 9.0032 3.5161 0.6245-4.1079 5.0076-11.682 6.8718-3.5161 0.38123 5.932 7.0895 12.923 9.0032 3.5161 0.62451-4.1079 5.0076-11.682 6.8718-3.5161 0.38126 5.9321 7.0894 12.923 9.0032 3.5161 0.62449-4.1079 5.0076-11.682 6.8718-3.5161 0.38106 5.9322 7.0894 12.923 9.0032 3.5161 0.6245-4.1079 5.0076-11.682 6.8718-3.5161 0.35377 3.7983 5.1656 12.915 5.1656 4.6316l-0.0676-136.02c0-12.325-6.9455-29.259-21.099-29.259z" fill="#ebf5ef" style="paint-order:markers fill stroke"/>
  <path d="m118.53 46.567v16.933h-8.4667v8.4667h-16.933v16.933 16.933h16.933v8.4667h16.933 16.933v8.4667 8.4667h-16.933-16.933v-8.4667h-16.933v16.933h16.933v8.4667h8.4667v16.933h16.933v-16.933h8.4667v-8.4667h16.933v-16.933-16.933h-16.933v-8.4667h-16.933-16.933v-8.4667-8.4667h16.933 16.933v8.4667h16.933v-16.933h-16.933v-8.4667h-8.4667v-16.933h-16.933z" fill="#478f64" style="paint-order:markers fill stroke"/>
  <path d="m122.77 42.333v16.933h-8.4667v8.4667h-16.933v16.933 16.933h16.933v8.4667h16.933 16.933v8.4667 8.4667h-16.933-16.933v-8.4667h-16.933v16.933h16.933v8.4667h8.4667v16.933h16.933v-16.933h8.4667v-8.4667h16.933v-16.933-16.933h-16.933v-8.4667h-16.933-16.933v-8.4667-8.4667h16.933 16.933v8.4667h16.933v-16.933h-16.933v-8.4667h-8.4667v-16.933h-16.933z" fill="#3dcc77" style="paint-order:markers fill stroke"/>
 </g>
</svg>
