<?xml version="1.0" encoding="UTF-8" standalone="no"?>
<!-- Created with Inkscape (http://www.inkscape.org/) -->

<svg
   width="800"
   height="800"
   viewBox="0 0 211.66666 211.66667"
   version="1.1"
   id="svg1"
   inkscape:version="1.3 (0e150ed6c4, 2023-07-21)"
   sodipodi:docname="boleta_.svg"
   xmlns:inkscape="http://www.inkscape.org/namespaces/inkscape"
   xmlns:sodipodi="http://sodipodi.sourceforge.net/DTD/sodipodi-0.dtd"
   xmlns="http://www.w3.org/2000/svg"
   xmlns:svg="http://www.w3.org/2000/svg">
  <sodipodi:namedview
     id="namedview1"
     pagecolor="#ffffff"
     bordercolor="#999999"
     borderopacity="1"
     inkscape:showpageshadow="0"
     inkscape:pageopacity="0"
     inkscape:pagecheckerboard="0"
     inkscape:deskcolor="#d1d1d1"
     inkscape:document-units="px"
     showgrid="true"
     showguides="true"
     inkscape:zoom="0.49262679"
     inkscape:cx="376.5528"
     inkscape:cy="248.66695"
     inkscape:window-width="1536"
     inkscape:window-height="795"
     inkscape:window-x="0"
     inkscape:window-y="0"
     inkscape:window-maximized="1"
     inkscape:current-layer="layer1">
    <inkscape:grid
       id="grid1"
       units="px"
       originx="0"
       originy="0"
       spacingx="4.2333333"
       spacingy="4.2333333"
       empcolor="#0099e5"
       empopacity="0.30196078"
       color="#0099e5"
       opacity="0.07843137"
       empspacing="5"
       dotted="false"
       gridanglex="30"
       gridanglez="30"
       visible="true" />
  </sodipodi:namedview>
  <defs
     id="defs1" />
  <g
     inkscape:label="Capa 1"
     inkscape:groupmode="layer"
     id="layer1">
    <path
       id="path94"
       style="fill:#4e8d67;fill-opacity:1;stroke:none;stroke-width:4;stroke-linecap:round;stroke-linejoin:round;paint-order:markers fill stroke"
       d="m 33.866666,29.633333 c -10.599829,0 -16.905045,10.471663 -19.555912,19.599838 -1.131285,3.895544 -1.590084,13.232267 -1.590084,13.232267 L 12.7,93.133333 H 55.033332 V 198.96666 c 5.034655,-0.9186 5.153627,-18.37691 10.274309,-9.75444 0.72518,4.54104 5.95106,14.81897 8.972579,5.73608 0.883313,-3.90149 5.005731,-13.51107 7.337536,-4.66328 0.381055,5.93216 7.089278,12.92332 9.003068,3.51606 0.624504,-4.10785 5.007739,-11.68235 6.871932,-3.51606 0.38106,5.93216 7.089284,12.92332 9.003074,3.51606 0.62451,-4.10785 5.00774,-11.68235 6.87193,-3.51606 0.38106,5.93216 7.08928,12.92332 9.00307,3.51606 0.6245,-4.10785 5.00774,-11.68235 6.87193,-3.51606 0.38123,5.932 7.08939,12.92336 9.00307,3.51606 0.62451,-4.10785 5.00774,-11.68235 6.87193,-3.51606 0.38126,5.93206 7.08925,12.92335 9.00307,3.51606 0.62449,-4.10786 5.00775,-11.68235 6.87193,-3.51606 0.38106,5.93216 7.08928,12.92332 9.00307,3.51606 0.6245,-4.10786 5.00775,-11.68235 6.87193,-3.51606 0.35377,3.79828 5.16558,12.91516 5.16558,4.63176 l -0.0677,-136.024768 c 0,-12.325336 -6.94535,-29.258678 -21.09897,-29.258679 z" />
    <path
       d="m 42.333243,21.166666 c -10.59984,0 -16.904788,10.4714 -19.555658,19.599584 -1.131286,3.895548 -1.5903,13.232521 -1.5903,13.232521 l -0.0207,30.667895 148.166575,3e-6 v -63.5 z"
       style="fill:#61e294;fill-opacity:1;stroke:none;stroke-width:4;stroke-linecap:round;stroke-linejoin:round;paint-order:markers fill stroke"
       id="path66"
       sodipodi:nodetypes="ssccsss" />
    <path
       d="m 42.333333,21.166666 c 12.347552,0 21.166665,12.699998 21.166665,29.63333 L 63.500017,190.5 c 5.03466,-0.9186 5.153444,-18.37691 10.274131,-9.75444 0.725181,4.54105 5.951235,14.81898 8.972757,5.73608 0.883314,-3.90149 5.005729,-13.51108 7.337536,-4.66328 0.381055,5.93217 7.089424,12.92333 9.003216,3.51606 0.624505,-4.10786 5.007593,-11.68236 6.871783,-3.51606 0.38106,5.93217 7.08943,12.92333 9.00322,3.51606 0.62451,-4.10786 5.00759,-11.68236 6.87178,-3.51606 0.38106,5.93217 7.08943,12.92333 9.00322,3.51606 0.6245,-4.10786 5.00759,-11.68236 6.87178,-3.51606 0.38123,5.93201 7.08954,12.92337 9.00322,3.51606 0.62451,-4.10786 5.00759,-11.68236 6.87178,-3.51606 0.38126,5.93207 7.0894,12.92336 9.00322,3.51606 0.62449,-4.10787 5.0076,-11.68236 6.87178,-3.51606 0.38106,5.93217 7.08943,12.92333 9.00322,3.51606 0.6245,-4.10787 5.0076,-11.68236 6.87178,-3.51606 0.35377,3.79829 5.16558,12.91496 5.16558,4.63155 l -0.0676,-136.024564 c 0,-12.325349 -6.94546,-29.25868 -21.09909,-29.258681 z"
       style="fill:#e1f9eb;fill-opacity:1;stroke:none;stroke-width:4;stroke-linecap:round;stroke-linejoin:round;paint-order:markers fill stroke"
       id="path79"
       sodipodi:nodetypes="cccccccccccccccccccccc" />
    <path
       id="rect80"
       style="fill:#4e8d67;fill-opacity:1;stroke:none;stroke-width:4;stroke-linecap:round;stroke-linejoin:round;paint-order:markers fill stroke"
       d="M 118.53333 46.566666 L 118.53333 63.499999 L 110.06667 63.499999 L 110.06667 71.966666 L 93.133333 71.966666 L 93.133333 88.899999 L 93.133333 105.83333 L 110.06667 105.83333 L 110.06667 114.3 L 127 114.3 L 143.93333 114.3 L 143.93333 122.76667 L 143.93333 131.23333 L 127 131.23333 L 110.06667 131.23333 L 110.06667 122.76667 L 93.133333 122.76667 L 93.133333 139.7 L 110.06667 139.7 L 110.06667 148.16667 L 118.53333 148.16667 L 118.53333 165.1 L 135.46667 165.1 L 135.46667 148.16667 L 143.93333 148.16667 L 143.93333 139.7 L 160.86667 139.7 L 160.86667 122.76667 L 160.86667 105.83333 L 143.93333 105.83333 L 143.93333 97.366666 L 127 97.366666 L 110.06667 97.366666 L 110.06667 88.899999 L 110.06667 80.433333 L 127 80.433333 L 143.93333 80.433333 L 143.93333 88.899999 L 160.86667 88.899999 L 160.86667 71.966666 L 143.93333 71.966666 L 143.93333 63.499999 L 135.46667 63.499999 L 135.46667 46.566666 L 118.53333 46.566666 z " />
    <path
       id="rect66"
       style="fill:#61e294;fill-opacity:1;stroke:none;stroke-width:4;stroke-linecap:round;stroke-linejoin:round;paint-order:markers fill stroke"
       d="M 122.76667 42.333333 L 122.76667 59.266666 L 114.3 59.266666 L 114.3 67.733333 L 97.366666 67.733333 L 97.366666 84.666666 L 97.366666 101.6 L 114.3 101.6 L 114.3 110.06667 L 131.23333 110.06667 L 148.16667 110.06667 L 148.16667 118.53333 L 148.16667 127 L 131.23333 127 L 114.3 127 L 114.3 118.53333 L 97.366666 118.53333 L 97.366666 135.46667 L 114.3 135.46667 L 114.3 143.93333 L 122.76667 143.93333 L 122.76667 160.86667 L 139.7 160.86667 L 139.7 143.93333 L 148.16667 143.93333 L 148.16667 135.46667 L 165.1 135.46667 L 165.1 118.53333 L 165.1 101.6 L 148.16667 101.6 L 148.16667 93.133333 L 131.23333 93.133333 L 114.3 93.133333 L 114.3 84.666666 L 114.3 76.199999 L 131.23333 76.199999 L 148.16667 76.199999 L 148.16667 84.666666 L 165.1 84.666666 L 165.1 67.733333 L 148.16667 67.733333 L 148.16667 59.266666 L 139.7 59.266666 L 139.7 42.333333 L 122.76667 42.333333 z " />
  </g>
</svg>
